<?xml version="1.0" standalone="no"?>
<!DOCTYPE svg PUBLIC "-//W3C//DTD SVG 20010904//EN"
 "http://www.w3.org/TR/2001/REC-SVG-20010904/DTD/svg10.dtd">
<svg version="1.0" xmlns="http://www.w3.org/2000/svg"
 width="150.000000pt" height="65.000000pt" viewBox="0 0 150.000000 65.000000"
 preserveAspectRatio="xMidYMid meet">

<g transform="translate(0.000000,65.000000) scale(0.100000,-0.100000)"
fill="#000000" stroke="none">
<path d="M635 490 c3 -5 8 -10 11 -10 2 0 4 5 4 10 0 6 -5 10 -11 10 -5 0 -7
-4 -4 -10z"/>
<path d="M858 460 c2 -22 6 -40 8 -40 2 0 4 18 4 40 0 22 -3 40 -8 40 -4 0 -6
-18 -4 -40z"/>
<path d="M1073 460 c0 -25 2 -35 4 -22 2 12 2 32 0 45 -2 12 -4 2 -4 -23z"/>
<path d="M1165 460 c0 -21 3 -36 8 -33 4 2 7 17 7 33 0 16 -3 31 -7 33 -5 3
-8 -12 -8 -33z"/>
<path d="M1210 491 c0 -5 7 -11 14 -14 10 -4 13 -1 9 9 -6 15 -23 19 -23 5z"/>
<path d="M1268 460 c-2 -22 0 -40 4 -40 5 0 8 18 8 40 0 22 -2 40 -4 40 -2 0
-6 -18 -8 -40z"/>
<path d="M1313 460 c0 -25 2 -35 4 -22 2 12 2 32 0 45 -2 12 -4 2 -4 -23z"/>
<path d="M1112 460 c0 -14 2 -19 5 -12 2 6 2 18 0 25 -3 6 -5 1 -5 -13z"/>
<path d="M782 445 c0 -16 2 -22 5 -12 2 9 2 23 0 30 -3 6 -5 -1 -5 -18z"/>
<path d="M941 454 c0 -11 3 -14 6 -6 3 7 2 16 -1 19 -3 4 -6 -2 -5 -13z"/>
<path d="M1212 445 c0 -16 2 -22 5 -12 2 9 2 23 0 30 -3 6 -5 -1 -5 -18z"/>
<path d="M632 440 c0 -14 2 -19 5 -12 2 6 2 18 0 25 -3 6 -5 1 -5 -13z"/>
<path d="M685 430 c-3 -5 -1 -10 4 -10 6 0 11 5 11 10 0 6 -2 10 -4 10 -3 0
-8 -4 -11 -10z"/>
<path d="M235 400 c-3 -6 1 -7 9 -4 18 7 21 14 7 14 -6 0 -13 -4 -16 -10z"/>
<path d="M309 383 c-13 -17 -13 -17 6 -3 11 8 22 16 24 17 2 2 0 3 -6 3 -6 0
-17 -8 -24 -17z"/>
<path d="M530 305 c0 -60 3 -75 15 -75 11 0 15 13 16 58 l1 57 17 -55 c10 -33
23 -55 31 -55 8 0 21 22 31 55 l17 55 1 -57 c1 -45 5 -58 16 -58 12 0 15 15
15 76 0 72 -1 75 -22 72 -17 -2 -25 -15 -36 -55 -8 -29 -18 -53 -22 -53 -4 0
-13 25 -20 55 -11 47 -16 55 -37 55 -22 0 -23 -3 -23 -75z"/>
<path d="M745 366 c-22 -16 -26 -96 -5 -120 16 -21 74 -20 94 0 21 21 21 97 0
118 -19 20 -64 21 -89 2z m76 -33 c14 -38 -2 -78 -32 -78 -17 0 -26 8 -33 27
-21 60 42 111 65 51z"/>
<path d="M890 305 c0 -60 3 -75 15 -75 10 0 15 10 15 30 0 34 15 40 25 11 7
-23 33 -46 42 -38 3 4 -2 18 -12 33 -12 19 -14 29 -6 37 17 17 13 64 -5 71 -9
3 -29 6 -45 6 l-29 0 0 -75z m65 30 c0 -11 -8 -21 -17 -23 -14 -3 -18 3 -18
23 0 20 4 26 18 23 9 -2 17 -12 17 -23z"/>
<path d="M1020 305 l0 -75 40 0 c22 0 40 5 40 10 0 6 -11 10 -25 10 -20 0 -25
5 -25 25 0 20 5 25 25 25 14 0 25 5 25 10 0 6 -11 10 -25 10 -18 0 -25 5 -25
20 0 15 7 20 25 20 14 0 25 5 25 10 0 6 -18 10 -40 10 l-40 0 0 -75z"/>
<path d="M1140 305 c0 -43 4 -75 10 -75 6 0 10 26 10 58 l1 57 32 -57 c20 -36
39 -58 50 -58 15 0 17 10 17 75 0 88 -18 102 -22 18 l-3 -58 -33 58 c-46 81
-62 76 -62 -18z"/>
<path d="M1316 364 c-10 -9 -16 -33 -16 -59 0 -53 19 -75 66 -75 30 0 37 5 49
34 16 37 6 93 -17 108 -21 13 -66 9 -82 -8z m76 -29 c17 -38 0 -80 -32 -80
-18 0 -27 8 -34 27 -13 36 6 78 34 78 12 0 25 -10 32 -25z"/>
<path d="M230 349 c0 -6 -5 -7 -12 -3 -7 4 -8 3 -4 -4 11 -18 62 -14 77 6 11
14 11 15 0 5 -9 -8 -21 -9 -37 -3 -16 6 -24 6 -24 -1z"/>
<path d="M332 308 c-7 -7 -12 -19 -11 -27 0 -10 4 -6 10 8 6 15 14 21 25 17 8
-3 12 -2 9 4 -8 13 -18 13 -33 -2z"/>
<path d="M75 289 c-4 -6 -5 -12 -2 -15 2 -3 7 2 10 11 7 17 1 20 -8 4z"/>
<path d="M406 292 c-3 -5 1 -9 9 -9 8 0 12 4 9 9 -3 4 -7 8 -9 8 -2 0 -6 -4
-9 -8z"/>
<path d="M145 255 l-30 -13 40 0 c22 0 34 2 27 5 -6 2 -10 9 -6 14 7 11 6 11
-31 -6z"/>
<path d="M340 257 l-25 -11 29 -4 c16 -2 34 2 40 9 8 9 8 10 -1 5 -6 -3 -13
-2 -15 3 -1 5 -14 4 -28 -2z"/>
<path d="M658 140 c2 -16 5 -30 7 -30 2 0 5 14 7 30 3 19 0 30 -7 30 -7 0 -10
-11 -7 -30z"/>
<path d="M768 163 c-26 -7 -24 -53 2 -53 16 0 20 7 20 30 0 17 -1 29 -2 29 -2
-1 -11 -3 -20 -6z m7 -22 c3 -5 1 -12 -5 -16 -5 -3 -10 1 -10 9 0 18 6 21 15
7z"/>
<path d="M1200 142 c0 -18 4 -32 8 -32 9 0 8 47 -1 57 -4 3 -7 -8 -7 -25z"/>
<path d="M697 147 c-3 -8 -2 -20 3 -27 11 -18 42 -4 38 17 -4 22 -34 29 -41
10z m20 -19 c-3 -8 -6 -5 -6 6 -1 11 2 17 5 13 3 -3 4 -12 1 -19z"/>
<path d="M804 146 c-7 -19 3 -36 22 -36 10 0 14 8 12 22 -4 26 -26 36 -34 14z
m26 -11 c0 -8 -4 -15 -10 -15 -5 0 -10 7 -10 15 0 8 5 15 10 15 6 0 10 -7 10
-15z"/>
<path d="M874 145 c-8 -19 3 -35 24 -35 13 0 14 2 3 9 -11 7 -11 9 0 13 7 2 9
10 5 16 -10 16 -25 15 -32 -3z"/>
<path d="M920 134 c0 -27 19 -24 21 4 1 11 4 8 9 -8 l8 -25 1 28 c1 21 -4 27
-19 27 -15 0 -20 -7 -20 -26z"/>
<path d="M1007 153 c-14 -13 -7 -43 11 -43 14 0 15 2 2 10 -13 8 -13 10 2 10
11 0 15 5 12 15 -7 16 -17 19 -27 8z"/>
<path d="M1048 142 c9 -28 26 -30 29 -5 2 10 0 12 -3 5 -5 -10 -9 -9 -20 5
-13 17 -13 16 -6 -5z"/>
<path d="M1094 145 c-8 -19 3 -35 24 -35 13 0 14 2 3 9 -11 7 -11 9 0 13 7 2
9 10 5 16 -10 16 -25 15 -32 -3z"/>
<path d="M1147 153 c-11 -10 -8 -43 3 -43 6 0 10 10 11 23 1 21 1 21 9 -3 l8
-25 1 28 c1 25 -16 36 -32 20z"/>
<path d="M1234 146 c-7 -19 3 -36 22 -36 10 0 14 8 12 22 -4 26 -26 36 -34 14z
m26 -12 c0 -8 -5 -12 -10 -9 -6 4 -8 11 -5 16 9 14 15 11 15 -7z"/>
<path d="M1285 151 c-3 -5 0 -13 6 -17 8 -4 7 -9 -2 -15 -11 -7 -10 -9 3 -9
20 0 32 16 18 25 -6 4 -8 11 -5 16 4 5 2 9 -4 9 -5 0 -12 -4 -16 -9z"/>
<path d="M276 88 c3 -5 10 -6 15 -3 13 9 11 12 -6 12 -8 0 -12 -4 -9 -9z"/>
</g>
</svg>
